<svg width="18" height="22" viewBox="0 0 18 22" fill="none" xmlns="http://www.w3.org/2000/svg">
<path fill-rule="evenodd" clip-rule="evenodd" d="M2.0884 13.1492C3.24179 13.1492 4.1768 12.2142 4.1768 11.0608C4.1768 9.90739 3.24179 8.97238 2.0884 8.97238C0.935007 8.97238 0 9.90739 0 11.0608C0 12.2142 0.935007 13.1492 2.0884 13.1492ZM9 13.1492C10.1534 13.1492 11.0884 12.2142 11.0884 11.0608C11.0884 9.90739 10.1534 8.97238 9 8.97238C7.84661 8.97238 6.9116 9.90739 6.9116 11.0608C6.9116 12.2142 7.84661 13.1492 9 13.1492ZM18 11.0608C18 12.2142 17.065 13.1492 15.9116 13.1492C14.7582 13.1492 13.8232 12.2142 13.8232 11.0608C13.8232 9.90739 14.7582 8.97238 15.9116 8.97238C17.065 8.97238 18 9.90739 18 11.0608Z" fill="currentColor"/>
</svg>
