<svg width="18" height="22" viewBox="0 0 18 22" fill="none" xmlns="http://www.w3.org/2000/svg">
<g opacity="0.9">
<path fill-rule="evenodd" clip-rule="evenodd" d="M0 4.5C0 4.22386 0.223858 4 0.5 4H17.5C17.7761 4 18 4.22386 18 4.5V6.5C18 6.77614 17.7761 7 17.5 7H0.5C0.223858 7 0 6.77614 0 6.5V4.5ZM3.17647 9.5C3.17647 9.22386 3.40033 9 3.67647 9H14.3235C14.5997 9 14.8235 9.22386 14.8235 9.5V11.5C14.8235 11.7761 14.5997 12 14.3235 12H3.67647C3.40033 12 3.17647 11.7761 3.17647 11.5V9.5ZM6.85294 14C6.5768 14 6.35294 14.2239 6.35294 14.5V16.5C6.35294 16.7761 6.5768 17 6.85294 17H11.1471C11.4232 17 11.6471 16.7761 11.6471 16.5V14.5C11.6471 14.2239 11.4232 14 11.1471 14H6.85294Z" fill="currentColor"/>
</g>
</svg>
